<svg width="1095" height="570" viewBox="0 0 1095 570" fill="none" xmlns="http://www.w3.org/2000/svg">
<g clip-path="url(#clip0_65_118)">
<mask id="mask0_65_118" style="mask-type:luminance" maskUnits="userSpaceOnUse" x="-3495" y="-323" width="4947" height="3145">
<path d="M-3494.45 -322.899H1451.52V2821.23H-3494.45V-322.899Z" fill="white"/>
</mask>
<g mask="url(#mask0_65_118)">
<path d="M526.403 264.837V242.851H548.511V220.767H570.599V198.702H614.815V176.617H679.096V154.533H767.507V132.468H898.111V154.533H853.896V176.617H833.811V198.702H811.703V220.767H789.615V264.936H767.507V307.085H745.399V395.383H767.507V373.319H789.615V351.234H809.7V329.149H853.896V307.085H876.004V285H942.307V264.936H1030.72V242.851H1095V264.936H1072.91V285H1050.8V307.085H1030.72V329.149H1008.61V373.319H986.503V461.617H1006.61V503.766H1028.7V525.851H1050.8V547.935H1072.91V570H986.503V525.851H964.415V481.701H942.307V461.617H898.111V439.552H789.615V461.617H811.703V481.701H831.808V503.766H853.896V547.935H831.808V570H789.615V525.851H767.507V481.701H745.399V439.552H701.203V417.468H657.008V395.383H548.511V417.468H570.599V437.532H592.707V481.701H614.815V525.851H592.707V547.935H570.599V570H526.403V503.766H504.296V459.617H482.208V439.552H460.1V417.468H437.992V395.383H417.907V373.319H373.711V351.234H307.407V329.149H218.996L196.888 329.169V351.234H218.996V373.319H241.104V395.383H263.192V417.468H285.3V437.532H307.407V503.766H285.3V525.851H263.192V547.935H241.104V570H0.000244141V439.552H22.0882V373.319H44.196V307.085H66.3038V285H88.3917V242.851H110.499V220.767H130.585V198.702H152.693V176.617H174.8V154.533H196.888V132.468H241.104V110.383H263.192V88.2987H307.407V66.2339H373.711V44.1494H437.992V22.0648H570.599V0H679.096V22.0648H634.9V44.1494H614.815V66.2339H592.707V88.2987H570.599V110.383H548.511V132.468H526.403V154.533H504.296V198.702H482.208C482.208 220.945 482.208 264.936 482.208 264.936C482.208 264.936 511.394 264.837 526.403 264.837Z" fill="#0123B4"/>
</g>
</g>
<defs>
<clipPath id="clip0_65_118">
<rect width="1095" height="570" fill="white"/>
</clipPath>
</defs>
</svg>
